<svg width="60" height="60" viewBox="0 0 60 60" fill="none" xmlns="http://www.w3.org/2000/svg">
<g clip-path="url(#clip0_141_104)">
<path d="M58.3713 0.65621C59.5549 1.47652 60.176 2.89449 59.9534 4.31246L52.4534 53.0625C52.2776 54.1992 51.5862 55.1953 50.5784 55.7578C49.5706 56.3203 48.3635 56.3906 47.2971 55.9453L33.2815 50.1211L25.2541 58.8046C24.2112 59.9414 22.5706 60.3164 21.1292 59.7539C19.6877 59.1914 18.7502 57.7968 18.7502 56.25V46.4531C18.7502 45.9843 18.926 45.539 19.2424 45.1992L38.8831 23.7656C39.5627 23.0273 39.5393 21.8906 38.8362 21.1875C38.1331 20.4843 36.9963 20.4375 36.2581 21.1054L12.4221 42.2812L2.07446 37.1015C0.832275 36.4804 0.0354003 35.2382 0.000244009 33.8554C-0.0349122 32.4726 0.69165 31.1836 1.88696 30.4921L54.387 0.492147C55.6409 -0.222696 57.1877 -0.152384 58.3713 0.65621Z" fill="#352F2F"/>
</g>
<defs>
<clipPath id="clip0_141_104">
<rect width="60" height="60" fill="white"/>
</clipPath>
</defs>
</svg>
