<svg width="54" height="48" viewBox="0 0 54 48" fill="none" xmlns="http://www.w3.org/2000/svg">
<g clip-path="url(#clip0_137_443)">
<path d="M29.7096 1.6875C29.2127 0.65625 28.1627 0 27.0096 0C25.8565 0 24.8158 0.65625 24.3096 1.6875L18.2815 14.0906L4.81896 16.0781C3.69396 16.2469 2.75646 17.0344 2.40959 18.1125C2.06271 19.1906 2.34396 20.3812 3.15021 21.1781L12.919 30.8438L10.6127 44.5031C10.4252 45.6281 10.894 46.7719 11.8221 47.4375C12.7502 48.1031 13.9783 48.1875 14.9908 47.6531L27.019 41.2312L39.0471 47.6531C40.0596 48.1875 41.2877 48.1125 42.2158 47.4375C43.144 46.7625 43.6127 45.6281 43.4252 44.5031L41.1096 30.8438L50.8783 21.1781C51.6846 20.3812 51.9752 19.1906 51.619 18.1125C51.2627 17.0344 50.3346 16.2469 49.2096 16.0781L35.7377 14.0906L29.7096 1.6875Z" fill="#C5A75B"/>
</g>
<defs>
<clipPath id="clip0_137_443">
<rect width="54" height="48" fill="white"/>
</clipPath>
</defs>
</svg>
