<svg width="62" height="31" viewBox="0 0 62 31" fill="none" xmlns="http://www.w3.org/2000/svg">
<rect x="0.5" y="0.5" width="61" height="30" rx="9.5" stroke="white"/>
<path d="M13.6 22H5.9V21.25C6.58333 21.25 7.09167 21.1917 7.425 21.075C7.775 20.9583 8.00833 20.725 8.125 20.375C8.25833 20.025 8.325 19.5083 8.325 18.825V8.6C8.325 7.93333 8.25833 7.44167 8.125 7.125C8.00833 6.79167 7.775 6.575 7.425 6.475C7.09167 6.375 6.58333 6.325 5.9 6.325V5.575H12.65C14.1333 5.575 15.325 5.73333 16.225 6.05C17.125 6.35 17.775 6.79167 18.175 7.375C18.575 7.94167 18.775 8.64167 18.775 9.475C18.775 10.5917 18.4417 11.4333 17.775 12C17.1083 12.55 16.2583 12.9667 15.225 13.25V13.35C15.9417 13.4667 16.625 13.6833 17.275 14C17.9417 14.3167 18.4917 14.7667 18.925 15.35C19.3583 15.9167 19.575 16.6583 19.575 17.575C19.575 18.9917 19.0417 20.0833 17.975 20.85C16.925 21.6167 15.4667 22 13.6 22ZM12.425 21.075C12.9583 21.075 13.4917 21.0417 14.025 20.975C14.5583 20.9083 15.0417 20.7667 15.475 20.55C15.925 20.3167 16.2833 19.975 16.55 19.525C16.8167 19.0583 16.95 18.425 16.95 17.625C16.95 16.675 16.725 15.9417 16.275 15.425C15.8417 14.8917 15.275 14.525 14.575 14.325C13.8917 14.1083 13.1583 14 12.375 14H10.625V21C10.925 21.0167 11.225 21.0333 11.525 21.05C11.825 21.0667 12.125 21.075 12.425 21.075ZM10.625 6.625V12.95H12.325C13.8417 12.95 14.8833 12.6917 15.45 12.175C16.0167 11.6417 16.3 10.8083 16.3 9.675C16.3 8.69167 15.9833 7.925 15.35 7.375C14.7333 6.825 13.6583 6.55 12.125 6.55C11.8917 6.55 11.6417 6.55833 11.375 6.575C11.125 6.575 10.875 6.59167 10.625 6.625ZM32.26 22H27.035V21.275C27.4683 21.275 27.7683 21.2417 27.935 21.175C28.1183 21.0917 28.21 20.9417 28.21 20.725C28.21 20.5583 28.1516 20.3833 28.035 20.2L26.46 17.775L25.835 16.675L25.435 16.325L22.685 12.4C22.4016 11.9833 22.16 11.6667 21.96 11.45C21.76 11.2333 21.5516 11.0917 21.335 11.025C21.1183 10.9417 20.835 10.9 20.485 10.9V10.175H25.86V10.875C25.06 10.875 24.66 11.0667 24.66 11.45C24.66 11.5833 24.71 11.7417 24.81 11.925C24.91 12.1083 25.0516 12.35 25.235 12.65C25.435 12.9333 25.6766 13.3083 25.96 13.775L26.66 15.075L27.06 15.3L30.26 19.825C30.61 20.325 30.91 20.6917 31.16 20.925C31.4266 21.1583 31.7933 21.275 32.26 21.275V22ZM24.335 22H20.16V21.275C20.5933 21.275 20.9516 21.1917 21.235 21.025C21.5183 20.8417 21.8683 20.5083 22.285 20.025L25.435 15.925L26.21 16.9H25.86L23.81 19.85C23.6933 20.05 23.56 20.25 23.41 20.45C23.2766 20.65 23.21 20.8 23.21 20.9C23.21 21.0333 23.2933 21.1333 23.46 21.2C23.6266 21.25 23.9183 21.275 24.335 21.275V22ZM29.835 12.075L27.06 15.65L26.335 14.875H26.66L27.835 13.175C28.1683 12.7083 28.4016 12.3583 28.535 12.125C28.6683 11.8917 28.735 11.675 28.735 11.475C28.735 11.2917 28.66 11.15 28.51 11.05C28.3766 10.9333 28.11 10.875 27.71 10.875V10.175H31.835V10.9C31.4183 10.9 31.0516 11.0083 30.735 11.225C30.4183 11.425 30.1183 11.7083 29.835 12.075ZM38.2566 22.25C36.5066 22.25 35.1316 21.7083 34.1316 20.625C33.1483 19.525 32.6566 17.9667 32.6566 15.95C32.6566 14.7333 32.89 13.675 33.3566 12.775C33.8233 11.8583 34.4733 11.15 35.3066 10.65C36.1566 10.1333 37.14 9.875 38.2566 9.875C39.9733 9.875 41.3233 10.4083 42.3066 11.475C43.3066 12.5417 43.8066 14 43.8066 15.85C43.8066 17.25 43.565 18.425 43.0816 19.375C42.615 20.325 41.965 21.0417 41.1316 21.525C40.2983 22.0083 39.34 22.25 38.2566 22.25ZM38.3566 21.25C39.04 21.25 39.615 21.0917 40.0816 20.775C40.5483 20.4583 40.8983 19.9167 41.1316 19.15C41.3816 18.3833 41.5066 17.325 41.5066 15.975C41.5066 14.4417 41.2233 13.2 40.6566 12.25C40.1066 11.3 39.2733 10.825 38.1566 10.825C37.2066 10.825 36.44 11.225 35.8566 12.025C35.2733 12.825 34.9816 14.025 34.9816 15.625C34.9816 17.6083 35.2733 19.05 35.8566 19.95C36.4566 20.8333 37.29 21.2667 38.3566 21.25ZM45.0602 26.4H44.2352L44.1602 21.15C44.2435 21.1333 44.3268 21.125 44.4102 21.125C44.4935 21.1083 44.5935 21.0917 44.7102 21.075C45.1768 20.9917 45.5935 20.7417 45.9602 20.325C46.3435 19.8917 46.6768 19.3583 46.9602 18.725C47.2602 18.075 47.5018 17.375 47.6852 16.625C47.8852 15.875 48.0352 15.1333 48.1352 14.4C48.2352 13.65 48.2852 12.9667 48.2852 12.35C48.2852 11.9667 48.2435 11.675 48.1602 11.475C48.0768 11.2583 47.8935 11.1083 47.6102 11.025C47.3435 10.9417 46.9185 10.9 46.3352 10.9V10.175H56.4852V10.9C55.8685 10.9 55.4352 10.9583 55.1852 11.075C54.9518 11.175 54.8185 11.3667 54.7852 11.65C54.7518 11.9333 54.7352 12.35 54.7352 12.9V19.65C54.7352 20.2667 54.8185 20.6667 54.9852 20.85C55.1518 21.0167 55.4185 21.1083 55.7852 21.125L56.7852 21.15L56.6602 26.4H55.8352C55.6685 25.5 55.5185 24.7583 55.3852 24.175C55.2518 23.6083 55.1018 23.1667 54.9352 22.85C54.7685 22.5333 54.5518 22.3083 54.2852 22.175C54.0352 22.0583 53.6935 22 53.2602 22H47.6352C47.0518 22 46.6185 22.1167 46.3352 22.35C46.0518 22.5833 45.8268 23.0167 45.6602 23.65C45.4935 24.3 45.2935 25.2167 45.0602 26.4ZM46.9352 20.95V21.05H52.6352V11.125H49.3602C49.3435 12.275 49.2602 13.4333 49.1102 14.6C48.9768 15.7667 48.7352 16.8917 48.3852 17.975C48.0518 19.0417 47.5685 20.0333 46.9352 20.95Z" fill="white"/>
</svg>
