<svg width="80" height="31" viewBox="0 0 80 31" fill="none" xmlns="http://www.w3.org/2000/svg">
<rect x="0.5" y="0.5" width="79" height="30" rx="9.5" stroke="white"/>
<path d="M13.6 22H5.9V21.25C6.58333 21.25 7.09167 21.1917 7.425 21.075C7.775 20.9583 8.00833 20.725 8.125 20.375C8.25833 20.025 8.325 19.5083 8.325 18.825V8.6C8.325 7.93333 8.25833 7.44167 8.125 7.125C8.00833 6.79167 7.775 6.575 7.425 6.475C7.09167 6.375 6.58333 6.325 5.9 6.325V5.575H12.65C14.1333 5.575 15.325 5.73333 16.225 6.05C17.125 6.35 17.775 6.79167 18.175 7.375C18.575 7.94167 18.775 8.64167 18.775 9.475C18.775 10.5917 18.4417 11.4333 17.775 12C17.1083 12.55 16.2583 12.9667 15.225 13.25V13.35C15.9417 13.4667 16.625 13.6833 17.275 14C17.9417 14.3167 18.4917 14.7667 18.925 15.35C19.3583 15.9167 19.575 16.6583 19.575 17.575C19.575 18.9917 19.0417 20.0833 17.975 20.85C16.925 21.6167 15.4667 22 13.6 22ZM12.425 21.075C12.9583 21.075 13.4917 21.0417 14.025 20.975C14.5583 20.9083 15.0417 20.7667 15.475 20.55C15.925 20.3167 16.2833 19.975 16.55 19.525C16.8167 19.0583 16.95 18.425 16.95 17.625C16.95 16.675 16.725 15.9417 16.275 15.425C15.8417 14.8917 15.275 14.525 14.575 14.325C13.8917 14.1083 13.1583 14 12.375 14H10.625V21C10.925 21.0167 11.225 21.0333 11.525 21.05C11.825 21.0667 12.125 21.075 12.425 21.075ZM10.625 6.625V12.95H12.325C13.8417 12.95 14.8833 12.6917 15.45 12.175C16.0167 11.6417 16.3 10.8083 16.3 9.675C16.3 8.69167 15.9833 7.925 15.35 7.375C14.7333 6.825 13.6583 6.55 12.125 6.55C11.8917 6.55 11.6417 6.55833 11.375 6.575C11.125 6.575 10.875 6.59167 10.625 6.625ZM26.7041 22H21.2541V21.3C22.0208 21.3 22.5041 21.1833 22.7041 20.95C22.9041 20.7167 23.0041 20.2667 23.0041 19.6V12.6C23.0041 12.1 22.9708 11.7333 22.9041 11.5C22.8374 11.25 22.6791 11.0917 22.4291 11.025C22.1958 10.9417 21.8124 10.9 21.2791 10.9V10.175H26.9041V10.9C26.3541 10.9 25.9541 10.9417 25.7041 11.025C25.4541 11.0917 25.2874 11.25 25.2041 11.5C25.1374 11.7333 25.1041 12.1 25.1041 12.6V15.25C25.3874 15.2333 25.7041 15.2167 26.0541 15.2C26.4208 15.1667 26.7874 15.15 27.1541 15.15C28.2041 15.15 29.0624 15.2917 29.7291 15.575C30.4124 15.8417 30.9124 16.225 31.2291 16.725C31.5624 17.2083 31.7291 17.7917 31.7291 18.475C31.7291 19.5417 31.3124 20.4 30.4791 21.05C29.6458 21.6833 28.3874 22 26.7041 22ZM26.4291 21.1C26.8958 21.1 27.3624 21.0417 27.8291 20.925C28.2958 20.7917 28.6791 20.55 28.9791 20.2C29.2958 19.8333 29.4541 19.3083 29.4541 18.625C29.4541 17.7083 29.1791 17.0583 28.6291 16.675C28.0791 16.275 27.3374 16.075 26.4041 16.075C26.1541 16.075 25.9208 16.0833 25.7041 16.1C25.4874 16.1167 25.2874 16.1333 25.1041 16.15V21.05C25.3374 21.0667 25.5541 21.0833 25.7541 21.1C25.9708 21.1 26.1958 21.1 26.4291 21.1ZM37.8291 22H32.3291V21.3C32.8624 21.3 33.2458 21.2583 33.4791 21.175C33.7124 21.0917 33.8624 20.9333 33.9291 20.7C33.9958 20.45 34.0291 20.075 34.0291 19.575V12.725C34.0291 12.2083 34.0041 11.825 33.9541 11.575C33.9041 11.3083 33.7624 11.1333 33.5291 11.05C33.2958 10.95 32.8958 10.9 32.3291 10.9V10.175H37.8291V10.9C37.3124 10.9 36.9291 10.9583 36.6791 11.075C36.4291 11.175 36.2708 11.3583 36.2041 11.625C36.1374 11.875 36.1041 12.2417 36.1041 12.725V19.5C36.1041 20.0167 36.1374 20.4083 36.2041 20.675C36.2708 20.925 36.4208 21.0917 36.6541 21.175C36.9041 21.2583 37.2958 21.3 37.8291 21.3V22ZM50.6926 22H45.4676V21.275C45.9009 21.275 46.2009 21.2417 46.3676 21.175C46.5509 21.0917 46.6426 20.9417 46.6426 20.725C46.6426 20.5583 46.5842 20.3833 46.4676 20.2L44.8926 17.775L44.2676 16.675L43.8676 16.325L41.1176 12.4C40.8342 11.9833 40.5926 11.6667 40.3926 11.45C40.1926 11.2333 39.9842 11.0917 39.7676 11.025C39.5509 10.9417 39.2676 10.9 38.9176 10.9V10.175H44.2926V10.875C43.4926 10.875 43.0926 11.0667 43.0926 11.45C43.0926 11.5833 43.1426 11.7417 43.2426 11.925C43.3426 12.1083 43.4842 12.35 43.6676 12.65C43.8676 12.9333 44.1092 13.3083 44.3926 13.775L45.0926 15.075L45.4926 15.3L48.6926 19.825C49.0426 20.325 49.3426 20.6917 49.5926 20.925C49.8592 21.1583 50.2259 21.275 50.6926 21.275V22ZM42.7676 22H38.5926V21.275C39.0259 21.275 39.3842 21.1917 39.6676 21.025C39.9509 20.8417 40.3009 20.5083 40.7176 20.025L43.8676 15.925L44.6426 16.9H44.2926L42.2426 19.85C42.1259 20.05 41.9926 20.25 41.8426 20.45C41.7092 20.65 41.6426 20.8 41.6426 20.9C41.6426 21.0333 41.7259 21.1333 41.8926 21.2C42.0592 21.25 42.3509 21.275 42.7676 21.275V22ZM48.2676 12.075L45.4926 15.65L44.7676 14.875H45.0926L46.2676 13.175C46.6009 12.7083 46.8342 12.3583 46.9676 12.125C47.1009 11.8917 47.1676 11.675 47.1676 11.475C47.1676 11.2917 47.0926 11.15 46.9426 11.05C46.8092 10.9333 46.5426 10.875 46.1426 10.875V10.175H50.2676V10.9C49.8509 10.9 49.4842 11.0083 49.1676 11.225C48.8509 11.425 48.5509 11.7083 48.2676 12.075ZM56.6893 22.25C54.9393 22.25 53.5643 21.7083 52.5643 20.625C51.5809 19.525 51.0893 17.9667 51.0893 15.95C51.0893 14.7333 51.3226 13.675 51.7893 12.775C52.2559 11.8583 52.9059 11.15 53.7393 10.65C54.5893 10.1333 55.5726 9.875 56.6893 9.875C58.4059 9.875 59.7559 10.4083 60.7393 11.475C61.7393 12.5417 62.2393 14 62.2393 15.85C62.2393 17.25 61.9976 18.425 61.5143 19.375C61.0476 20.325 60.3976 21.0417 59.5643 21.525C58.7309 22.0083 57.7726 22.25 56.6893 22.25ZM56.7893 21.25C57.4726 21.25 58.0476 21.0917 58.5143 20.775C58.9809 20.4583 59.3309 19.9167 59.5643 19.15C59.8143 18.3833 59.9393 17.325 59.9393 15.975C59.9393 14.4417 59.6559 13.2 59.0893 12.25C58.5393 11.3 57.7059 10.825 56.5893 10.825C55.6393 10.825 54.8726 11.225 54.2893 12.025C53.7059 12.825 53.4143 14.025 53.4143 15.625C53.4143 17.6083 53.7059 19.05 54.2893 19.95C54.8893 20.8333 55.7226 21.2667 56.7893 21.25ZM63.4928 26.4H62.6678L62.5928 21.15C62.6761 21.1333 62.7594 21.125 62.8428 21.125C62.9261 21.1083 63.0261 21.0917 63.1428 21.075C63.6094 20.9917 64.0261 20.7417 64.3928 20.325C64.7761 19.8917 65.1094 19.3583 65.3928 18.725C65.6928 18.075 65.9344 17.375 66.1178 16.625C66.3178 15.875 66.4678 15.1333 66.5678 14.4C66.6678 13.65 66.7178 12.9667 66.7178 12.35C66.7178 11.9667 66.6761 11.675 66.5928 11.475C66.5094 11.2583 66.3261 11.1083 66.0428 11.025C65.7761 10.9417 65.3511 10.9 64.7678 10.9V10.175H74.9178V10.9C74.3011 10.9 73.8678 10.9583 73.6178 11.075C73.3844 11.175 73.2511 11.3667 73.2178 11.65C73.1844 11.9333 73.1678 12.35 73.1678 12.9V19.65C73.1678 20.2667 73.2511 20.6667 73.4178 20.85C73.5844 21.0167 73.8511 21.1083 74.2178 21.125L75.2178 21.15L75.0928 26.4H74.2678C74.1011 25.5 73.9511 24.7583 73.8178 24.175C73.6844 23.6083 73.5344 23.1667 73.3678 22.85C73.2011 22.5333 72.9844 22.3083 72.7178 22.175C72.4678 22.0583 72.1261 22 71.6928 22H66.0678C65.4844 22 65.0511 22.1167 64.7678 22.35C64.4844 22.5833 64.2594 23.0167 64.0928 23.65C63.9261 24.3 63.7261 25.2167 63.4928 26.4ZM65.3678 20.95V21.05H71.0678V11.125H67.7928C67.7761 12.275 67.6928 13.4333 67.5428 14.6C67.4094 15.7667 67.1678 16.8917 66.8178 17.975C66.4844 19.0417 66.0011 20.0333 65.3678 20.95Z" fill="white"/>
</svg>
