<svg width="211" height="47" viewBox="0 0 211 47" fill="none" xmlns="http://www.w3.org/2000/svg">
<rect width="211" height="47" rx="23.5" fill="#352F2F"/>
<path d="M54.225 30.3C52.575 30.3 51.15 29.9583 49.95 29.275C48.7667 28.5917 47.85 27.6167 47.2 26.35C46.5667 25.0667 46.25 23.5417 46.25 21.775C46.25 20.075 46.5667 18.5917 47.2 17.325C47.85 16.0417 48.7667 15.05 49.95 14.35C51.15 13.6333 52.575 13.275 54.225 13.275C55.8917 13.275 57.3167 13.625 58.5 14.325C59.6833 15.0083 60.5917 15.975 61.225 17.225C61.8583 18.4583 62.175 19.9 62.175 21.55C62.175 23.3 61.85 24.8333 61.2 26.15C60.5667 27.45 59.6583 28.4667 58.475 29.2C57.2917 29.9333 55.875 30.3 54.225 30.3ZM54.25 29.25C56.0333 29.25 57.3583 28.6083 58.225 27.325C59.1083 26.0417 59.55 24.1417 59.55 21.625C59.55 20.125 59.325 18.8333 58.875 17.75C58.425 16.65 57.7917 15.8083 56.975 15.225C56.175 14.625 55.2333 14.325 54.15 14.325C52.5333 14.325 51.25 14.975 50.3 16.275C49.35 17.5583 48.875 19.3417 48.875 21.625C48.875 23.975 49.3167 25.8333 50.2 27.2C51.1 28.5667 52.45 29.25 54.25 29.25ZM72.1326 30H66.1326V29.3C66.6826 29.3 67.091 29.2667 67.3576 29.2C67.641 29.1167 67.8326 28.95 67.9326 28.7C68.0326 28.4333 68.0826 28.0333 68.0826 27.5V19.1H67.1576C66.5076 19.1 66.0076 19.2083 65.6576 19.425C65.3076 19.625 65.041 19.9583 64.8576 20.425C64.6743 20.8917 64.4993 21.525 64.3326 22.325H63.6576L63.8076 18.175H74.4826L74.6326 22.325H73.9576C73.8076 21.525 73.641 20.8917 73.4576 20.425C73.2743 19.9583 73.0076 19.625 72.6576 19.425C72.3076 19.2083 71.8076 19.1 71.1576 19.1H70.1826V27.5C70.1826 28.0333 70.2326 28.4333 70.3326 28.7C70.4326 28.95 70.6243 29.1167 70.9076 29.2C71.191 29.2667 71.5993 29.3 72.1326 29.3V30ZM81.184 30H75.584V29.3C76.1173 29.3 76.509 29.2583 76.759 29.175C77.009 29.0917 77.1757 28.9333 77.259 28.7C77.3423 28.45 77.384 28.075 77.384 27.575V20.725C77.384 20.2083 77.3507 19.825 77.284 19.575C77.2173 19.3083 77.059 19.1333 76.809 19.05C76.559 18.95 76.1507 18.9 75.584 18.9V18.175H88.859V18.9C88.2757 18.9 87.8507 18.9583 87.584 19.075C87.334 19.175 87.184 19.3583 87.134 19.625C87.084 19.875 87.059 20.2417 87.059 20.725V27.5C87.059 28.0167 87.0923 28.4083 87.159 28.675C87.2423 28.925 87.409 29.0917 87.659 29.175C87.9257 29.2583 88.3257 29.3 88.859 29.3V30H83.284V29.3C83.8173 29.3 84.2007 29.2583 84.434 29.175C84.6673 29.0917 84.809 28.925 84.859 28.675C84.9257 28.4083 84.959 28.0167 84.959 27.5V19.125H79.484V27.5C79.484 28.0167 79.509 28.4083 79.559 28.675C79.6257 28.925 79.7757 29.0917 80.009 29.175C80.259 29.2583 80.6507 29.3 81.184 29.3V30ZM96.4795 35.5H90.1545V34.8C90.9378 34.8 91.4378 34.6667 91.6545 34.4C91.8712 34.15 91.9795 33.675 91.9795 32.975V20.6C91.9795 20.1167 91.9212 19.7833 91.8045 19.6C91.7045 19.4167 91.4462 19.325 91.0295 19.325C90.8628 19.325 90.6878 19.3333 90.5045 19.35C90.3212 19.3667 90.2295 19.375 90.2295 19.375V18.65L93.3795 17.95H94.0045V20.05H94.0795C94.6795 19.35 95.2878 18.8167 95.9045 18.45C96.5378 18.0667 97.2212 17.875 97.9545 17.875C98.7878 17.875 99.5128 18.1167 100.129 18.6C100.763 19.0667 101.254 19.725 101.604 20.575C101.971 21.4083 102.154 22.375 102.154 23.475C102.154 24.8917 101.904 26.1083 101.404 27.125C100.921 28.125 100.263 28.9 99.4295 29.45C98.5962 29.9833 97.6795 30.25 96.6795 30.25C96.2128 30.25 95.7628 30.1917 95.3295 30.075C94.9128 29.975 94.5212 29.8 94.1545 29.55H94.0545V32.825C94.0545 33.3583 94.1212 33.7667 94.2545 34.05C94.3878 34.3333 94.6295 34.525 94.9795 34.625C95.3295 34.725 95.8295 34.775 96.4795 34.775V35.5ZM96.8045 29.275C97.6878 29.275 98.4212 28.8583 99.0045 28.025C99.5878 27.1917 99.8795 25.9083 99.8795 24.175C99.8795 22.5917 99.6212 21.4333 99.1045 20.7C98.5878 19.95 97.8628 19.575 96.9295 19.575C96.2628 19.575 95.6712 19.75 95.1545 20.1C94.6545 20.45 94.2878 20.7833 94.0545 21.1V27.625C94.2212 27.7917 94.4295 28.0083 94.6795 28.275C94.9295 28.5417 95.2295 28.775 95.5795 28.975C95.9295 29.175 96.3378 29.275 96.8045 29.275ZM106.957 30.175C105.991 30.175 105.249 29.9083 104.732 29.375C104.232 28.8417 103.982 28.175 103.982 27.375C103.982 26.7083 104.132 26.15 104.432 25.7C104.749 25.2333 105.157 24.8417 105.657 24.525C106.174 24.2083 106.724 23.9417 107.307 23.725C107.907 23.5083 108.491 23.325 109.057 23.175C109.624 23.025 110.124 22.8833 110.557 22.75V21.65C110.557 20.5667 110.366 19.8 109.982 19.35C109.616 18.8833 109.057 18.65 108.307 18.65C107.591 18.65 107.132 18.8 106.932 19.1C106.732 19.4 106.632 19.925 106.632 20.675C106.632 21.0583 106.532 21.35 106.332 21.55C106.149 21.7333 105.882 21.825 105.532 21.825C105.282 21.825 105.041 21.7333 104.807 21.55C104.591 21.35 104.482 21.0417 104.482 20.625C104.482 20.1583 104.657 19.7167 105.007 19.3C105.374 18.8833 105.882 18.5417 106.532 18.275C107.199 18.0083 107.982 17.875 108.882 17.875C110.249 17.875 111.216 18.1917 111.782 18.825C112.349 19.4583 112.632 20.425 112.632 21.725V27.4C112.632 27.9167 112.691 28.25 112.807 28.4C112.924 28.55 113.116 28.625 113.382 28.625C113.616 28.625 113.824 28.5667 114.007 28.45C114.207 28.3333 114.391 28.1833 114.557 28L114.932 28.4C114.516 29 114.116 29.4417 113.732 29.725C113.366 29.9917 112.866 30.125 112.232 30.125C111.649 30.125 111.266 29.9583 111.082 29.625C110.916 29.2917 110.791 28.8167 110.707 28.2L110.557 27.9V23.575C109.807 23.7583 109.099 23.975 108.432 24.225C107.766 24.475 107.224 24.8 106.807 25.2C106.391 25.6 106.182 26.125 106.182 26.775C106.182 27.3917 106.349 27.8833 106.682 28.25C107.016 28.6167 107.449 28.8 107.982 28.8C108.416 28.8 108.866 28.6917 109.332 28.475C109.816 28.2583 110.282 27.95 110.732 27.55L110.932 28.45H110.632C110.249 28.7833 109.874 29.0833 109.507 29.35C109.157 29.6167 108.774 29.825 108.357 29.975C107.957 30.1083 107.491 30.175 106.957 30.175ZM122.144 30H115.869V29.3C116.352 29.3 116.719 29.2667 116.969 29.2C117.219 29.1167 117.386 28.9667 117.469 28.75C117.552 28.5167 117.594 28.175 117.594 27.725V20.5C117.594 20.0167 117.552 19.6667 117.469 19.45C117.402 19.2167 117.244 19.0667 116.994 19C116.761 18.9333 116.386 18.9 115.869 18.9V18.175H121.544C123.194 18.175 124.411 18.4167 125.194 18.9C125.977 19.3667 126.369 20.05 126.369 20.95C126.369 21.75 126.119 22.375 125.619 22.825C125.119 23.2583 124.469 23.5667 123.669 23.75V23.85C124.102 23.9333 124.552 24.0833 125.019 24.3C125.502 24.5 125.911 24.8083 126.244 25.225C126.594 25.625 126.769 26.175 126.769 26.875C126.769 27.9417 126.361 28.7333 125.544 29.25C124.727 29.75 123.594 30 122.144 30ZM121.244 29.1C121.744 29.1 122.236 29.0667 122.719 29C123.219 28.9167 123.627 28.7167 123.944 28.4C124.277 28.0833 124.444 27.575 124.444 26.875C124.444 26.175 124.286 25.65 123.969 25.3C123.669 24.95 123.269 24.7167 122.769 24.6C122.286 24.4833 121.769 24.425 121.219 24.425H119.719V29.05C119.969 29.0667 120.211 29.0833 120.444 29.1C120.694 29.1 120.961 29.1 121.244 29.1ZM119.719 19.15V23.475H121.094C122.277 23.475 123.086 23.2833 123.519 22.9C123.952 22.5167 124.169 21.9333 124.169 21.15C124.169 20.4167 123.919 19.8917 123.419 19.575C122.936 19.2583 122.086 19.1 120.869 19.1C120.719 19.1 120.536 19.1 120.319 19.1C120.119 19.1 119.919 19.1167 119.719 19.15ZM133.966 30H128.466V29.3C129.166 29.3 129.633 29.2083 129.866 29.025C130.099 28.825 130.216 28.3917 130.216 27.725V20.475C130.216 20.025 130.174 19.6917 130.091 19.475C130.024 19.2417 129.866 19.0917 129.616 19.025C129.383 18.9417 129.008 18.9 128.491 18.9V18.175H133.966V18.9C133.483 18.9 133.116 18.9417 132.866 19.025C132.633 19.0917 132.483 19.2417 132.416 19.475C132.349 19.6917 132.316 20.0417 132.316 20.525V26.625H132.366L138.216 20.275C138.216 19.675 138.116 19.3 137.916 19.15C137.716 18.9833 137.274 18.9 136.591 18.9V18.175H142.041V18.9C141.574 18.9 141.216 18.9417 140.966 19.025C140.716 19.0917 140.549 19.25 140.466 19.5C140.383 19.75 140.341 20.1333 140.341 20.65V27.725C140.341 28.3917 140.458 28.825 140.691 29.025C140.941 29.2083 141.383 29.3 142.016 29.3V30H136.591V29.3C137.258 29.3 137.691 29.2083 137.891 29.025C138.108 28.825 138.216 28.3917 138.216 27.725V21.675H138.166L132.316 27.975C132.316 28.475 132.424 28.825 132.641 29.025C132.858 29.2083 133.299 29.3 133.966 29.3V30ZM151.6 30H145.6V29.3C146.15 29.3 146.559 29.2667 146.825 29.2C147.109 29.1167 147.3 28.95 147.4 28.7C147.5 28.4333 147.55 28.0333 147.55 27.5V19.1H146.625C145.975 19.1 145.475 19.2083 145.125 19.425C144.775 19.625 144.509 19.9583 144.325 20.425C144.142 20.8917 143.967 21.525 143.8 22.325H143.125L143.275 18.175H153.95L154.1 22.325H153.425C153.275 21.525 153.109 20.8917 152.925 20.425C152.742 19.9583 152.475 19.625 152.125 19.425C151.775 19.2083 151.275 19.1 150.625 19.1H149.65V27.5C149.65 28.0333 149.7 28.4333 149.8 28.7C149.9 28.95 150.092 29.1167 150.375 29.2C150.659 29.2667 151.067 29.3 151.6 29.3V30ZM160.727 30H155.102V29.3C155.868 29.3 156.352 29.1833 156.552 28.95C156.752 28.7167 156.852 28.2667 156.852 27.6V20.6C156.852 20.1 156.818 19.7333 156.752 19.5C156.685 19.25 156.527 19.0917 156.277 19.025C156.043 18.9417 155.66 18.9 155.127 18.9V18.175H160.752V18.9C160.202 18.9 159.802 18.9417 159.552 19.025C159.302 19.0917 159.135 19.25 159.052 19.5C158.985 19.7333 158.952 20.1 158.952 20.6V23.25C159.268 23.2333 159.61 23.2167 159.977 23.2C160.343 23.1667 160.727 23.15 161.127 23.15C162.21 23.15 163.102 23.2917 163.802 23.575C164.518 23.8417 165.043 24.225 165.377 24.725C165.727 25.2083 165.902 25.7917 165.902 26.475C165.902 27.5417 165.468 28.4 164.602 29.05C163.752 29.6833 162.46 30 160.727 30ZM160.352 29.1C160.852 29.1 161.343 29.0417 161.827 28.925C162.327 28.7917 162.743 28.55 163.077 28.2C163.41 27.8333 163.577 27.3083 163.577 26.625C163.577 25.7083 163.285 25.0583 162.702 24.675C162.118 24.275 161.335 24.075 160.352 24.075C160.085 24.075 159.827 24.0833 159.577 24.1C159.343 24.1167 159.135 24.1333 158.952 24.15V29.05C159.202 29.0667 159.435 29.0833 159.652 29.1C159.868 29.1 160.102 29.1 160.352 29.1Z" fill="white"/>
</svg>
