<svg width="211" height="47" viewBox="0 0 211 47" fill="none" xmlns="http://www.w3.org/2000/svg">
<rect width="211" height="47" rx="23.5" fill="#352F2F"/>
<path d="M34.225 30.3C32.575 30.3 31.15 29.9583 29.95 29.275C28.7667 28.5917 27.85 27.6167 27.2 26.35C26.5667 25.0667 26.25 23.5417 26.25 21.775C26.25 20.075 26.5667 18.5917 27.2 17.325C27.85 16.0417 28.7667 15.05 29.95 14.35C31.15 13.6333 32.575 13.275 34.225 13.275C35.8917 13.275 37.3167 13.625 38.5 14.325C39.6833 15.0083 40.5917 15.975 41.225 17.225C41.8583 18.4583 42.175 19.9 42.175 21.55C42.175 23.3 41.85 24.8333 41.2 26.15C40.5667 27.45 39.6583 28.4667 38.475 29.2C37.2917 29.9333 35.875 30.3 34.225 30.3ZM34.25 29.25C36.0333 29.25 37.3583 28.6083 38.225 27.325C39.1083 26.0417 39.55 24.1417 39.55 21.625C39.55 20.125 39.325 18.8333 38.875 17.75C38.425 16.65 37.7917 15.8083 36.975 15.225C36.175 14.625 35.2333 14.325 34.15 14.325C32.5333 14.325 31.25 14.975 30.3 16.275C29.35 17.5583 28.875 19.3417 28.875 21.625C28.875 23.975 29.3167 25.8333 30.2 27.2C31.1 28.5667 32.45 29.25 34.25 29.25ZM52.1326 30H46.1326V29.3C46.6826 29.3 47.091 29.2667 47.3576 29.2C47.641 29.1167 47.8326 28.95 47.9326 28.7C48.0326 28.4333 48.0826 28.0333 48.0826 27.5V19.1H47.1576C46.5076 19.1 46.0076 19.2083 45.6576 19.425C45.3076 19.625 45.041 19.9583 44.8576 20.425C44.6743 20.8917 44.4993 21.525 44.3326 22.325H43.6576L43.8076 18.175H54.4826L54.6326 22.325H53.9576C53.8076 21.525 53.641 20.8917 53.4576 20.425C53.2743 19.9583 53.0076 19.625 52.6576 19.425C52.3076 19.2083 51.8076 19.1 51.1576 19.1H50.1826V27.5C50.1826 28.0333 50.2326 28.4333 50.3326 28.7C50.4326 28.95 50.6243 29.1167 50.9076 29.2C51.191 29.2667 51.5993 29.3 52.1326 29.3V30ZM61.209 30H55.584V29.3C56.1173 29.3 56.509 29.2667 56.759 29.2C57.0257 29.1167 57.1923 28.95 57.259 28.7C57.3423 28.45 57.384 28.075 57.384 27.575V20.575C57.384 20.1417 57.3507 19.8083 57.284 19.575C57.2173 19.325 57.059 19.15 56.809 19.05C56.559 18.95 56.159 18.9 55.609 18.9V18.175H61.209V18.9C60.6923 18.9 60.309 18.95 60.059 19.05C59.8257 19.15 59.6673 19.325 59.584 19.575C59.5173 19.8083 59.484 20.1417 59.484 20.575V23.55H60.684C61.3173 23.55 61.784 23.375 62.084 23.025C62.384 22.6583 62.6673 22.0167 62.934 21.1C63.0673 20.6167 63.2423 20.1333 63.459 19.65C63.6757 19.1667 63.9757 18.7667 64.359 18.45C64.7423 18.1167 65.2423 17.95 65.859 17.95C66.1757 17.95 66.459 18 66.709 18.1C66.959 18.2 67.159 18.3583 67.309 18.575C67.4757 18.775 67.559 19.025 67.559 19.325C67.559 19.6417 67.459 19.9083 67.259 20.125C67.0757 20.3417 66.8007 20.45 66.434 20.45C66.2007 20.45 66.009 20.4 65.859 20.3C65.709 20.2 65.5673 20.1083 65.434 20.025C65.3007 19.925 65.1423 19.875 64.959 19.875C64.7423 19.875 64.534 19.9833 64.334 20.2C64.1507 20.4 63.9923 20.7917 63.859 21.375C63.7257 21.8917 63.5757 22.3167 63.409 22.65C63.259 22.9833 63.0173 23.3417 62.684 23.725V23.775C62.934 24.025 63.1757 24.3167 63.409 24.65C63.6423 24.9667 63.9423 25.4167 64.309 26C64.6757 26.5667 65.184 27.3417 65.834 28.325C66.034 28.6083 66.2007 28.8167 66.334 28.95C66.4673 29.0833 66.659 29.175 66.909 29.225C67.159 29.275 67.5423 29.3083 68.059 29.325V30H64.334C64.084 29.55 63.7923 29.0417 63.459 28.475C63.1257 27.8917 62.784 27.3 62.434 26.7C62.084 26.0833 61.7423 25.5083 61.409 24.975C61.259 24.7083 61.0923 24.55 60.909 24.5C60.7257 24.4333 60.4923 24.4 60.209 24.4H59.484V27.575C59.484 28.075 59.5173 28.45 59.584 28.7C59.6673 28.95 59.834 29.1167 60.084 29.2C60.334 29.2667 60.709 29.3 61.209 29.3V30ZM69.6652 30.225C69.0986 30.225 68.6486 30.0917 68.3152 29.825C67.9986 29.5417 67.8402 29.1917 67.8402 28.775C67.8402 28.4083 67.9402 28.1333 68.1402 27.95C68.3569 27.75 68.5902 27.65 68.8402 27.65C69.2236 27.65 69.5236 27.7333 69.7402 27.9C69.9569 28.0667 70.1986 28.15 70.4652 28.15C70.6986 28.15 70.9069 28.0917 71.0902 27.975C71.2902 27.8583 71.4736 27.6 71.6402 27.2C71.8402 26.7333 72.0236 26.1833 72.1902 25.55C72.3736 24.9 72.5236 24.2417 72.6402 23.575C72.7569 22.8917 72.8486 22.2583 72.9152 21.675C72.9819 21.075 73.0152 20.5917 73.0152 20.225C73.0152 19.5917 72.8736 19.2167 72.5902 19.1C72.3069 18.9667 71.7736 18.9 70.9902 18.9V18.175H81.1402V18.9C80.4569 18.9 79.9902 18.9833 79.7402 19.15C79.5069 19.3 79.3902 19.6417 79.3902 20.175V28C79.3902 28.5167 79.4986 28.8667 79.7152 29.05C79.9319 29.2167 80.3986 29.3 81.1152 29.3V30H75.5402V29.3C76.2569 29.3 76.7236 29.2167 76.9402 29.05C77.1736 28.8833 77.2902 28.5417 77.2902 28.025V19.125H74.2152C74.1652 20.125 74.0652 21.1583 73.9152 22.225C73.7819 23.2917 73.5986 24.3167 73.3652 25.3C73.1486 26.2833 72.8652 27.1583 72.5152 27.925C72.1986 28.6583 71.8152 29.225 71.3652 29.625C70.9152 30.025 70.3486 30.225 69.6652 30.225ZM88.2336 30H82.7336V29.3C83.4336 29.3 83.9003 29.2083 84.1336 29.025C84.3669 28.825 84.4836 28.3917 84.4836 27.725V20.475C84.4836 20.025 84.4419 19.6917 84.3586 19.475C84.2919 19.2417 84.1336 19.0917 83.8836 19.025C83.6503 18.9417 83.2753 18.9 82.7586 18.9V18.175H88.2336V18.9C87.7503 18.9 87.3836 18.9417 87.1336 19.025C86.9003 19.0917 86.7503 19.2417 86.6836 19.475C86.6169 19.6917 86.5836 20.0417 86.5836 20.525V26.625H86.6336L92.4836 20.275C92.4836 19.675 92.3836 19.3 92.1836 19.15C91.9836 18.9833 91.5419 18.9 90.8586 18.9V18.175H96.3086V18.9C95.8419 18.9 95.4836 18.9417 95.2336 19.025C94.9836 19.0917 94.8169 19.25 94.7336 19.5C94.6503 19.75 94.6086 20.1333 94.6086 20.65V27.725C94.6086 28.3917 94.7253 28.825 94.9586 29.025C95.2086 29.2083 95.6503 29.3 96.2836 29.3V30H90.8586V29.3C91.5253 29.3 91.9586 29.2083 92.1586 29.025C92.3753 28.825 92.4836 28.3917 92.4836 27.725V21.675H92.4336L86.5836 27.975C86.5836 28.475 86.6919 28.825 86.9086 29.025C87.1253 29.2083 87.5669 29.3 88.2336 29.3V30ZM103.543 30H97.918V29.3C98.4513 29.3 98.843 29.2667 99.093 29.2C99.3596 29.1167 99.5263 28.95 99.593 28.7C99.6763 28.45 99.718 28.075 99.718 27.575V20.575C99.718 20.1417 99.6846 19.8083 99.618 19.575C99.5513 19.325 99.393 19.15 99.143 19.05C98.893 18.95 98.493 18.9 97.943 18.9V18.175H103.543V18.9C103.026 18.9 102.643 18.95 102.393 19.05C102.16 19.15 102.001 19.325 101.918 19.575C101.851 19.8083 101.818 20.1417 101.818 20.575V23.55H103.018C103.651 23.55 104.118 23.375 104.418 23.025C104.718 22.6583 105.001 22.0167 105.268 21.1C105.401 20.6167 105.576 20.1333 105.793 19.65C106.01 19.1667 106.31 18.7667 106.693 18.45C107.076 18.1167 107.576 17.95 108.193 17.95C108.51 17.95 108.793 18 109.043 18.1C109.293 18.2 109.493 18.3583 109.643 18.575C109.81 18.775 109.893 19.025 109.893 19.325C109.893 19.6417 109.793 19.9083 109.593 20.125C109.41 20.3417 109.135 20.45 108.768 20.45C108.535 20.45 108.343 20.4 108.193 20.3C108.043 20.2 107.901 20.1083 107.768 20.025C107.635 19.925 107.476 19.875 107.293 19.875C107.076 19.875 106.868 19.9833 106.668 20.2C106.485 20.4 106.326 20.7917 106.193 21.375C106.06 21.8917 105.91 22.3167 105.743 22.65C105.593 22.9833 105.351 23.3417 105.018 23.725V23.775C105.268 24.025 105.51 24.3167 105.743 24.65C105.976 24.9667 106.276 25.4167 106.643 26C107.01 26.5667 107.518 27.3417 108.168 28.325C108.368 28.6083 108.535 28.8167 108.668 28.95C108.801 29.0833 108.993 29.175 109.243 29.225C109.493 29.275 109.876 29.3083 110.393 29.325V30H106.668C106.418 29.55 106.126 29.0417 105.793 28.475C105.46 27.8917 105.118 27.3 104.768 26.7C104.418 26.0833 104.076 25.5083 103.743 24.975C103.593 24.7083 103.426 24.55 103.243 24.5C103.06 24.4333 102.826 24.4 102.543 24.4H101.818V27.575C101.818 28.075 101.851 28.45 101.918 28.7C102.001 28.95 102.168 29.1167 102.418 29.2C102.668 29.2667 103.043 29.3 103.543 29.3V30ZM116.555 30H110.955V29.3C111.488 29.3 111.88 29.2583 112.13 29.175C112.38 29.0917 112.547 28.9333 112.63 28.7C112.713 28.45 112.755 28.075 112.755 27.575V20.725C112.755 20.2083 112.722 19.825 112.655 19.575C112.588 19.3083 112.43 19.1333 112.18 19.05C111.93 18.95 111.522 18.9 110.955 18.9V18.175H116.555V18.9C116.022 18.9 115.63 18.9583 115.38 19.075C115.147 19.175 114.997 19.3583 114.93 19.625C114.88 19.875 114.855 20.2417 114.855 20.725V23.425H120.655V20.725C120.655 20.2417 120.63 19.875 120.58 19.625C120.53 19.3583 120.388 19.175 120.155 19.075C119.922 18.9583 119.53 18.9 118.98 18.9V18.175H124.58V18.9C123.997 18.9 123.572 18.9583 123.305 19.075C123.055 19.175 122.905 19.3583 122.855 19.625C122.805 19.875 122.78 20.2417 122.78 20.725V27.5C122.78 28.0167 122.813 28.4083 122.88 28.675C122.963 28.925 123.13 29.0917 123.38 29.175C123.647 29.2583 124.047 29.3 124.58 29.3V30H118.98V29.3C119.53 29.3 119.922 29.2583 120.155 29.175C120.388 29.0917 120.53 28.925 120.58 28.675C120.63 28.4083 120.655 28.0167 120.655 27.5V24.325H114.855V27.5C114.855 28.0167 114.88 28.4083 114.93 28.675C114.997 28.925 115.147 29.0917 115.38 29.175C115.63 29.2583 116.022 29.3 116.555 29.3V30ZM127.267 35.875C126.75 35.875 126.325 35.775 125.992 35.575C125.658 35.375 125.492 35.0417 125.492 34.575C125.492 34.1917 125.6 33.9167 125.817 33.75C126.05 33.5833 126.325 33.5 126.642 33.5C127.075 33.5 127.458 33.5917 127.792 33.775C128.142 33.9583 128.4 34.05 128.567 34.05C128.8 34.05 129.05 33.8667 129.317 33.5C129.583 33.15 129.842 32.725 130.092 32.225C130.358 31.725 130.567 31.25 130.717 30.8C130.883 30.3667 130.967 30.0583 130.967 29.875C130.967 29.7083 130.875 29.4083 130.692 28.975C130.525 28.5417 130.367 28.1583 130.217 27.825L126.542 19.8C126.425 19.5167 126.258 19.3 126.042 19.15C125.825 18.9833 125.492 18.9 125.042 18.9V18.175H130.392V18.925C129.825 18.925 129.442 18.9833 129.242 19.1C129.058 19.2 128.967 19.3583 128.967 19.575C128.967 19.7417 129.008 19.925 129.092 20.125C129.175 20.3083 129.25 20.4917 129.317 20.675L131.767 26.175L132.092 27.4H132.267L134.692 20.15C134.725 20.0667 134.75 19.9667 134.767 19.85C134.8 19.7167 134.817 19.6083 134.817 19.525C134.817 19.275 134.683 19.1083 134.417 19.025C134.167 18.9417 133.833 18.9 133.417 18.9V18.175H137.667V18.9C137.167 18.9 136.8 19.0167 136.567 19.25C136.333 19.4667 136.125 19.8167 135.942 20.3L132.042 30.55C131.558 31.8167 131.083 32.8417 130.617 33.625C130.167 34.4083 129.675 34.975 129.142 35.325C128.608 35.6917 127.983 35.875 127.267 35.875ZM146.127 30H140.127V29.3C140.677 29.3 141.085 29.2667 141.352 29.2C141.635 29.1167 141.827 28.95 141.927 28.7C142.027 28.4333 142.077 28.0333 142.077 27.5V19.1H141.152C140.502 19.1 140.002 19.2083 139.652 19.425C139.302 19.625 139.035 19.9583 138.852 20.425C138.668 20.8917 138.493 21.525 138.327 22.325H137.652L137.802 18.175H148.477L148.627 22.325H147.952C147.802 21.525 147.635 20.8917 147.452 20.425C147.268 19.9583 147.002 19.625 146.652 19.425C146.302 19.2083 145.802 19.1 145.152 19.1H144.177V27.5C144.177 28.0333 144.227 28.4333 144.327 28.7C144.427 28.95 144.618 29.1167 144.902 29.2C145.185 29.2667 145.593 29.3 146.127 29.3V30ZM155.253 30H149.628V29.3C150.395 29.3 150.878 29.1833 151.078 28.95C151.278 28.7167 151.378 28.2667 151.378 27.6V20.6C151.378 20.1 151.345 19.7333 151.278 19.5C151.211 19.25 151.053 19.0917 150.803 19.025C150.57 18.9417 150.186 18.9 149.653 18.9V18.175H155.278V18.9C154.728 18.9 154.328 18.9417 154.078 19.025C153.828 19.0917 153.661 19.25 153.578 19.5C153.511 19.7333 153.478 20.1 153.478 20.6V23.25C153.795 23.2333 154.136 23.2167 154.503 23.2C154.87 23.1667 155.253 23.15 155.653 23.15C156.736 23.15 157.628 23.2917 158.328 23.575C159.045 23.8417 159.57 24.225 159.903 24.725C160.253 25.2083 160.428 25.7917 160.428 26.475C160.428 27.5417 159.995 28.4 159.128 29.05C158.278 29.6833 156.986 30 155.253 30ZM154.878 29.1C155.378 29.1 155.87 29.0417 156.353 28.925C156.853 28.7917 157.27 28.55 157.603 28.2C157.936 27.8333 158.103 27.3083 158.103 26.625C158.103 25.7083 157.811 25.0583 157.228 24.675C156.645 24.275 155.861 24.075 154.878 24.075C154.611 24.075 154.353 24.0833 154.103 24.1C153.87 24.1167 153.661 24.1333 153.478 24.15V29.05C153.728 29.0667 153.961 29.0833 154.178 29.1C154.395 29.1 154.628 29.1 154.878 29.1ZM171.26 26.3L171.735 26.65C171.418 27.3167 171.051 27.925 170.635 28.475C170.235 29.025 169.735 29.4583 169.135 29.775C168.535 30.0917 167.785 30.25 166.885 30.25C165.851 30.25 164.96 30 164.21 29.5C163.46 29 162.885 28.3083 162.485 27.425C162.085 26.525 161.885 25.5 161.885 24.35C161.885 23.0333 162.101 21.8917 162.535 20.925C162.985 19.9583 163.626 19.2083 164.46 18.675C165.31 18.1417 166.335 17.875 167.535 17.875C168.718 17.875 169.643 18.1333 170.31 18.65C170.993 19.1667 171.335 19.7917 171.335 20.525C171.335 20.8917 171.243 21.175 171.06 21.375C170.893 21.5583 170.635 21.65 170.285 21.65C169.918 21.65 169.635 21.5583 169.435 21.375C169.251 21.175 169.101 20.9333 168.985 20.65C168.868 20.3667 168.743 20.0833 168.61 19.8C168.493 19.5167 168.318 19.2833 168.085 19.1C167.868 18.9 167.543 18.8 167.11 18.8C166.093 18.8 165.293 19.175 164.71 19.925C164.143 20.6583 163.86 21.7417 163.86 23.175C163.86 24.6917 164.168 25.9417 164.785 26.925C165.418 27.8917 166.376 28.375 167.66 28.375C168.476 28.375 169.135 28.2083 169.635 27.875C170.151 27.5417 170.693 27.0167 171.26 26.3ZM175.992 30H172.092V29.325C172.642 29.3083 173.058 29.2583 173.342 29.175C173.625 29.0917 173.875 28.9083 174.092 28.625C174.325 28.3417 174.6 27.9 174.917 27.3C175.367 26.45 175.733 25.8 176.017 25.35C176.317 24.9 176.65 24.5583 177.017 24.325V24.25C176.5 24.15 175.983 23.9917 175.467 23.775C174.967 23.5583 174.55 23.2417 174.217 22.825C173.9 22.4083 173.742 21.8583 173.742 21.175C173.742 20.3583 173.975 19.7333 174.442 19.3C174.925 18.85 175.542 18.5417 176.292 18.375C177.058 18.2083 177.875 18.125 178.742 18.125H184.392V18.9C183.658 18.9 183.175 18.975 182.942 19.125C182.725 19.275 182.617 19.6333 182.617 20.2V27.65C182.617 28.15 182.667 28.5167 182.767 28.75C182.867 28.9833 183.05 29.1333 183.317 29.2C183.583 29.2667 183.967 29.3 184.467 29.3V30H178.717V29.3C179.267 29.3 179.667 29.2667 179.917 29.2C180.183 29.1333 180.35 28.9833 180.417 28.75C180.483 28.5 180.517 28.1333 180.517 27.65V24.525H180.017C179.617 24.525 179.308 24.5583 179.092 24.625C178.892 24.6917 178.708 24.8417 178.542 25.075C178.442 25.225 178.25 25.5417 177.967 26.025C177.7 26.5083 177.392 27.1 177.042 27.8C176.708 28.4833 176.358 29.2167 175.992 30ZM179.667 23.675H180.517V19.075C180.367 19.0417 180.167 19.025 179.917 19.025C179.683 19.025 179.45 19.025 179.217 19.025C178.083 19.025 177.258 19.2167 176.742 19.6C176.225 19.9833 175.967 20.5083 175.967 21.175C175.967 22.0583 176.325 22.7 177.042 23.1C177.775 23.4833 178.65 23.675 179.667 23.675Z" fill="white"/>
</svg>
